<?xml version="1.0" encoding="UTF-8" standalone="no"?>
<svg
   fill="#ffffff"
   viewBox="0 0 64 64"
   width="128px"
   height="128px"
   version="1.1"
   id="svg4"
   sodipodi:docname="facebook.svg"
   inkscape:version="1.1.2 (0a00cf5339, 2022-02-04, custom)"
   xmlns:inkscape="http://www.inkscape.org/namespaces/inkscape"
   xmlns:sodipodi="http://sodipodi.sourceforge.net/DTD/sodipodi-0.dtd"
   xmlns="http://www.w3.org/2000/svg"
   xmlns:svg="http://www.w3.org/2000/svg">
  <defs
     id="defs8" />
  <sodipodi:namedview
     id="namedview6"
     pagecolor="#ffffff"
     bordercolor="#666666"
     borderopacity="1.0"
     inkscape:pageshadow="2"
     inkscape:pageopacity="0.0"
     inkscape:pagecheckerboard="0"
     showgrid="false"
     inkscape:snap-global="true"
     inkscape:zoom="4.90625"
     inkscape:cx="64"
     inkscape:cy="64"
     inkscape:window-width="1920"
     inkscape:window-height="1125"
     inkscape:window-x="0"
     inkscape:window-y="44"
     inkscape:window-maximized="1"
     inkscape:current-layer="svg4" />
  <path
     d="M 53.333333,0 H 10.666667 C 4.776,0 0,4.776 0,10.666667 V 53.333333 C 0,59.224 4.776,64 10.666667,64 H 33.333333 V 41.333333 h -8 V 32 h 8 V 25.333333 C 33.333333,16 38.666667,10.666667 46.666667,10.666667 50.844,10.666667 53.333333,12 53.333333,12 v 8 H 48 c -3.813333,0 -5.333333,2.790667 -5.333333,5.333333 V 32 H 52 l -1.333333,9.333333 h -8 V 64 H 53.333333 C 59.224,64 64,59.224 64,53.333333 V 10.666667 C 64,4.776 59.224,0 53.333333,0 Z"
     id="path2"
     style="stroke-width:1.33333" />
</svg>
