<?xml version="1.0" encoding="UTF-8" standalone="no"?>
<svg
   fill="#ffffff"
   viewBox="0 0 50 50"
   width="100px"
   height="100px"
   version="1.1"
   id="svg4"
   sodipodi:docname="instagram.svg"
   inkscape:version="1.1.2 (0a00cf5339, 2022-02-04, custom)"
   xmlns:inkscape="http://www.inkscape.org/namespaces/inkscape"
   xmlns:sodipodi="http://sodipodi.sourceforge.net/DTD/sodipodi-0.dtd"
   xmlns="http://www.w3.org/2000/svg"
   xmlns:svg="http://www.w3.org/2000/svg">
  <defs
     id="defs8" />
  <sodipodi:namedview
     id="namedview6"
     pagecolor="#ffffff"
     bordercolor="#666666"
     borderopacity="1.0"
     inkscape:pageshadow="2"
     inkscape:pageopacity="0.0"
     inkscape:pagecheckerboard="0"
     showgrid="false"
     inkscape:zoom="6.28"
     inkscape:cx="50"
     inkscape:cy="50"
     inkscape:window-width="1920"
     inkscape:window-height="1125"
     inkscape:window-x="0"
     inkscape:window-y="44"
     inkscape:window-maximized="1"
     inkscape:current-layer="svg4" />
  <path
     d="M 14.772727,0 C 6.625,0 0,6.625 0,14.772727 V 35.227273 C 0,43.375 6.625,50 14.772727,50 H 35.227273 C 43.375,50 50,43.375 50,35.227273 V 14.772727 C 50,6.625 43.375,0 35.227273,0 Z m 23.863637,9.0909091 c 1.25,0 2.272727,1.0227269 2.272727,2.2727269 0,1.25 -1.022727,2.272728 -2.272727,2.272728 -1.25,0 -2.272728,-1.022728 -2.272728,-2.272728 0,-1.25 1.022728,-2.2727269 2.272728,-2.2727269 z M 25,12.5 c 6.897727,0 12.5,5.602273 12.5,12.5 0,6.897727 -5.602273,12.5 -12.5,12.5 -6.897727,0 -12.5,-5.602273 -12.5,-12.5 0,-6.897727 5.602273,-12.5 12.5,-12.5 z m 0,2.272727 c -5.636364,0 -10.227273,4.590909 -10.227273,10.227273 0,5.636364 4.590909,10.227273 10.227273,10.227273 5.636364,0 10.227273,-4.590909 10.227273,-10.227273 0,-5.636364 -4.590909,-10.227273 -10.227273,-10.227273 z"
     id="path2"
     style="stroke-width:1.13636" />
</svg>
