<?xml version="1.0" encoding="UTF-8" standalone="no"?>
<svg
   fill="#ffffff"
   viewBox="0 0 50 50"
   width="100px"
   height="100px"
   version="1.1"
   id="svg4"
   sodipodi:docname="linkedin.svg"
   inkscape:version="1.1.2 (0a00cf5339, 2022-02-04, custom)"
   xmlns:inkscape="http://www.inkscape.org/namespaces/inkscape"
   xmlns:sodipodi="http://sodipodi.sourceforge.net/DTD/sodipodi-0.dtd"
   xmlns="http://www.w3.org/2000/svg"
   xmlns:svg="http://www.w3.org/2000/svg">
  <defs
     id="defs8" />
  <sodipodi:namedview
     id="namedview6"
     pagecolor="#ffffff"
     bordercolor="#666666"
     borderopacity="1.0"
     inkscape:pageshadow="2"
     inkscape:pageopacity="0.0"
     inkscape:pagecheckerboard="0"
     showgrid="false"
     inkscape:zoom="6.28"
     inkscape:cx="50"
     inkscape:cy="50"
     inkscape:window-width="1920"
     inkscape:window-height="1125"
     inkscape:window-x="0"
     inkscape:window-y="44"
     inkscape:window-maximized="1"
     inkscape:current-layer="svg4" />
  <path
     d="M 44.047619,0 H 5.952381 C 2.6666667,0 0,2.6666667 0,5.952381 V 44.047619 C 0,47.333333 2.6666667,50 5.952381,50 H 44.047619 C 47.333333,50 50,47.333333 50,44.047619 V 5.952381 C 50,2.6666667 47.333333,0 44.047619,0 Z M 15.47619,19.047619 V 41.666667 H 8.3333333 V 19.047619 Z M 8.3333333,12.464286 c 0,-1.666667 1.4285715,-2.9404765 3.5714287,-2.9404765 2.142857,0 3.488095,1.2738095 3.571428,2.9404765 0,1.666666 -1.333333,3.011904 -3.571428,3.011904 -2.1428572,0 -3.5714287,-1.345238 -3.5714287,-3.011904 z M 41.666667,41.666667 H 34.52381 c 0,0 0,-11.02381 0,-11.904762 0,-2.380953 -1.190477,-4.761905 -4.166667,-4.809524 h -0.09524 c -2.880953,0 -4.071429,2.452381 -4.071429,4.809524 0,1.083333 0,11.904762 0,11.904762 H 19.047619 V 19.047619 h 7.142857 v 3.047619 c 0,0 2.297619,-3.047619 6.916667,-3.047619 4.72619,0 8.559524,3.25 8.559524,9.833333 z"
     id="path2"
     style="stroke-width:1.19048" />
</svg>
